<svg xmlns="http://www.w3.org/2000/svg" viewBox="0 0 64 64">
  <rect x="12" y="16" width="40" height="32" rx="3" fill="#1B2A4A"/>
  <rect x="16" y="20" width="32" height="24" rx="2" fill="#FBF7F1"/>
  <line x1="20" y1="28" x2="44" y2="28" stroke="#1B2A4A" stroke-width="1.5"/>
  <line x1="20" y1="33" x2="38" y2="33" stroke="#1B2A4A" stroke-width="1.5"/>
  <line x1="20" y1="38" x2="35" y2="38" stroke="#1B2A4A" stroke-width="1.5"/>
  <polygon points="48,14 50,10 52,14 56,14 53,17 54,21 50,18 46,21 47,17 44,14" fill="#F0C75E"/>
  <polygon points="10,12 12,8 14,12 18,12 15,15 16,19 12,16 8,19 9,15 6,12" fill="#D94A4A"/>
  <circle cx="32" cy="8" r="3" fill="#2D6A4F"/>
</svg>